<?xml version="1.0" standalone="no"?>
<!DOCTYPE svg PUBLIC "-//W3C//DTD SVG 20010904//EN"
 "http://www.w3.org/TR/2001/REC-SVG-20010904/DTD/svg10.dtd">
<svg version="1.0" xmlns="http://www.w3.org/2000/svg"
 width="1024.000000pt" height="1024.000000pt" viewBox="0 0 1024.000000 1024.000000"
 preserveAspectRatio="xMidYMid meet">

<g transform="translate(0.000000,1024.000000) scale(0.100000,-0.100000)"
fill="#000000" stroke="none">
<path d="M0 5120 l0 -5120 5120 0 5120 0 0 5120 0 5120 -5120 0 -5120 0 0
-5120z m7217 3113 c53 -25 73 -58 73 -120 0 -40 -6 -63 -25 -92 l-26 -38 75
-299 c41 -164 84 -344 96 -399 30 -139 36 -152 73 -159 18 -3 109 -4 202 -3
l170 2 7 105 c4 58 11 187 17 288 6 101 16 193 22 204 39 72 125 102 169 58
24 -24 25 -55 9 -398 -8 -153 -9 -246 -3 -252 6 -6 82 -14 169 -20 173 -10
209 -17 254 -49 60 -43 62 -97 21 -581 -11 -129 -20 -240 -20 -247 0 -7 24
-28 54 -47 98 -63 193 -176 228 -274 29 -80 35 -244 14 -336 -58 -245 -281
-426 -526 -426 -154 1 -306 59 -408 158 -138 132 -193 304 -162 502 11 69 11
83 -1 91 -8 5 -107 9 -220 9 -162 0 -209 -3 -218 -14 -6 -7 -16 -40 -22 -72
-42 -240 -165 -454 -328 -575 -150 -112 -261 -167 -406 -203 -269 -67 -574
-13 -804 143 -66 45 -175 159 -231 241 -205 302 -213 696 -21 1013 61 101 88
135 168 214 70 69 71 76 34 148 -25 47 -26 74 -6 142 23 77 81 136 181 183 95
46 90 37 119 210 18 101 67 319 110 488 15 56 24 109 21 117 -3 10 -19 15 -45
15 -79 0 -118 36 -128 119 -6 55 8 90 57 136 l31 30 297 6 c467 10 889 1 929
-18z m-2021 -66 c21 -6 47 -25 58 -40 20 -27 21 -40 22 -335 1 -441 -8 -710
-26 -747 -24 -49 -86 -71 -245 -90 -262 -30 -436 -72 -623 -150 -628 -264
-1045 -820 -1113 -1485 -57 -560 187 -1164 630 -1563 85 -76 256 -195 371
-255 285 -151 686 -233 990 -203 442 45 819 216 1123 510 266 257 427 537 523
906 15 60 36 117 46 127 37 37 82 40 657 35 621 -4 608 -3 637 -73 37 -88 -46
-488 -163 -784 -165 -417 -392 -773 -688 -1079 -516 -532 -1156 -856 -1890
-957 -182 -25 -610 -26 -780 -1 -313 46 -526 101 -795 207 -357 141 -715 373
-1001 648 -598 574 -933 1268 -1000 2072 -13 166 -7 434 15 610 68 541 287
1062 627 1492 130 164 412 439 569 555 478 354 1006 556 1600 613 121 11 408
3 456 -13z"/>
<path d="M6315 8220 c-215 -3 -316 -9 -331 -17 -51 -29 -70 -113 -39 -172 15
-31 39 -41 97 -41 40 0 68 -21 68 -50 0 -10 -22 -105 -49 -211 -27 -107 -63
-270 -80 -364 -18 -93 -38 -181 -44 -195 -8 -15 -40 -39 -84 -61 -95 -48 -139
-82 -162 -128 -41 -80 -36 -154 14 -201 l25 -23 58 36 c224 138 541 176 784
94 252 -86 475 -283 586 -518 42 -87 82 -240 90 -342 l7 -82 230 -5 c127 -3
235 -4 240 -3 6 2 26 29 44 60 118 196 329 297 551 264 41 -7 92 -14 112 -18
35 -5 37 -4 42 28 8 47 36 447 43 601 l6 127 -32 30 c-37 35 -99 47 -276 56
-149 8 -162 10 -170 34 -3 11 -1 155 5 321 8 228 8 305 -1 316 -17 21 -65 17
-93 -8 -34 -30 -42 -79 -52 -288 -4 -91 -8 -172 -10 -180 -1 -8 -3 -46 -3 -85
-1 -38 -6 -77 -11 -85 -8 -13 -40 -15 -202 -12 -106 1 -205 2 -219 2 -37 0
-51 33 -94 230 -38 175 -54 242 -115 465 -56 205 -56 195 -20 235 67 75 27
174 -77 191 -53 8 -357 8 -838 -1z m732 -243 c7 -6 37 -109 68 -227 53 -209
91 -353 154 -590 54 -200 44 -221 -101 -221 -89 -1 -125 9 -173 45 -52 40
-191 115 -261 141 -136 51 -274 79 -454 90 -51 4 -98 9 -102 11 -9 6 -6 32 34
264 16 96 41 242 53 323 13 82 29 155 35 162 16 20 30 20 400 17 249 -2 338
-5 347 -15z m1236 -1302 c-3 -10 -366 -20 -391 -10 -7 3 -10 9 -7 15 9 14 401
9 398 -5z"/>
<path d="M6320 7952 c0 -4 -11 -73 -25 -152 -49 -274 -74 -425 -80 -486 -7
-58 -6 -61 16 -67 13 -4 56 -7 94 -7 202 0 474 -88 673 -218 34 -22 86 -45
114 -52 60 -12 132 -4 149 17 15 17 11 33 -71 343 -33 124 -84 315 -113 425
l-53 200 -352 3 c-194 1 -352 -1 -352 -6z"/>
<path d="M6127 6889 c-339 -49 -638 -317 -756 -677 -11 -35 -25 -110 -32 -168
-29 -275 62 -524 268 -728 79 -79 128 -115 221 -161 281 -138 605 -137 887 5
415 208 609 704 443 1135 -55 141 -105 219 -199 313 -156 153 -343 251 -539
282 -75 11 -210 11 -293 -1z m333 -324 c163 -44 288 -147 367 -306 59 -117 77
-200 69 -319 -10 -167 -59 -281 -163 -381 -138 -134 -291 -201 -458 -203 -165
-1 -313 62 -441 189 -123 121 -162 210 -171 390 -7 135 9 204 72 320 47 86
137 185 220 242 49 33 175 77 245 87 58 7 201 -3 260 -19z"/>
<path d="M6136 6544 c-94 -23 -186 -77 -260 -154 -40 -42 -64 -74 -61 -82 3
-8 66 -55 140 -103 74 -49 135 -95 135 -103 0 -21 -18 -11 -159 84 -88 59
-132 83 -144 78 -23 -9 -64 -79 -83 -145 -22 -74 -22 -216 0 -304 30 -122 50
-132 138 -66 89 67 199 141 209 141 30 0 -6 -34 -103 -100 -113 -77 -158 -119
-158 -148 0 -28 85 -117 152 -160 82 -51 166 -82 244 -89 77 -7 73 -15 77 180
3 195 22 176 22 -23 l0 -155 65 1 c117 2 247 64 351 167 33 32 62 70 66 85 8
32 -21 59 -165 152 -89 58 -122 90 -92 90 5 0 70 -40 143 -90 74 -49 139 -90
145 -90 17 0 40 51 58 127 22 94 13 227 -22 331 -40 116 -46 120 -116 73 -142
-94 -239 -153 -245 -148 -11 12 19 37 153 123 74 48 134 90 134 94 0 17 -61
95 -97 124 -101 79 -311 146 -340 108 -9 -11 -13 -61 -13 -168 0 -84 -3 -159
-6 -168 -17 -45 -24 0 -24 157 0 121 -4 177 -12 185 -15 15 -58 14 -132 -4z
m218 -404 c74 -28 125 -111 126 -202 0 -49 -5 -62 -33 -99 -47 -62 -89 -84
-162 -84 -195 1 -282 235 -130 351 66 50 129 61 199 34z"/>
<path d="M6237 6120 c-40 -12 -94 -56 -112 -90 -8 -16 -15 -52 -15 -80 0 -62
18 -100 65 -136 38 -28 111 -42 159 -30 50 12 94 63 106 122 14 65 6 108 -27
152 -40 53 -117 81 -176 62z"/>
<path d="M8109 6226 c-114 -32 -232 -118 -298 -217 -112 -167 -116 -422 -9
-584 124 -188 374 -285 592 -229 235 61 396 275 396 525 0 133 -43 243 -132
343 -103 116 -245 177 -411 175 -51 0 -113 -6 -138 -13z m259 -308 c146 -69
172 -277 47 -386 -50 -45 -98 -62 -169 -62 -137 0 -240 105 -240 245 0 177
190 283 362 203z"/>
<path d="M8155 5903 c-78 -41 -124 -114 -125 -198 0 -40 7 -62 33 -104 84
-140 289 -143 377 -5 38 60 44 103 26 168 -29 98 -111 156 -218 156 -37 -1
-75 -7 -93 -17z"/>
<path d="M4675 8093 c-696 -90 -1321 -398 -1807 -890 -395 -401 -630 -814
-762 -1339 -71 -283 -91 -478 -83 -804 5 -224 17 -339 53 -520 108 -537 357
-1032 727 -1442 833 -921 2091 -1271 3239 -902 349 113 654 274 950 501 139
108 417 382 527 522 309 391 520 828 609 1266 41 196 39 222 -18 283 l-21 22
-528 0 c-437 0 -531 -2 -540 -14 -6 -7 -23 -58 -37 -112 -54 -210 -148 -417
-278 -612 -249 -374 -660 -662 -1116 -780 -370 -96 -762 -79 -1115 48 -269 96
-516 252 -712 448 -279 280 -463 620 -549 1017 -32 147 -44 437 -24 594 33
270 141 564 287 786 192 291 434 506 742 660 245 122 484 187 791 215 166 14
163 11 171 186 4 76 7 265 8 419 1 250 -1 285 -18 329 -17 45 -71 106 -93 106
-5 0 -6 5 -3 10 6 10 -329 12 -400 3z"/>
</g>
</svg>
